<svg width="1190" height="1190" viewBox="0 0 1190 1190" fill="none" xmlns="http://www.w3.org/2000/svg">
<rect width="1190" height="1190" rx="100" fill="#3287F8"/>
<path d="M574.859 573.843H86V250.242C86 172.346 86.0002 133.398 110.2 109.199C134.4 85.0002 173.35 85 251.248 85H574.859V573.843ZM317.761 225.644C271.769 225.644 232.953 258.914 226.104 302.947C204.249 313.385 190.223 335.238 190.223 360.027C190.223 394.928 218.601 423.631 253.829 423.631H404.526C439.428 423.631 468.133 394.928 468.133 360.354C468.133 326.432 441.711 298.707 408.115 296.75C398.655 255.326 361.796 225.644 317.761 225.644Z" fill="white"/>
<path d="M1105 938.766C1105 1016.66 1105 1055.61 1080.79 1079.81C1056.6 1104.01 1017.65 1104.01 939.748 1104.01H616.137V615.165H1105V938.766ZM750.711 739.833C748.38 739.002 745.857 738.846 743.44 739.391C741.024 739.932 738.81 741.151 737.056 742.902C735.304 744.654 734.088 746.867 733.543 749.284C733.002 751.701 733.155 754.224 733.989 756.558L821.581 992.323C822.549 994.845 824.272 997.005 826.517 998.505C828.762 1000 831.418 1000.77 834.118 1000.7C836.815 1000.63 839.427 999.721 841.589 998.107C843.751 996.489 845.359 994.241 846.19 991.674L878.51 888.145C878.787 887.253 879.277 886.441 879.939 885.781C880.599 885.122 881.41 884.629 882.302 884.352L985.835 852.033C988.405 851.202 990.65 849.595 992.268 847.433C993.885 845.271 994.79 842.659 994.863 839.959C994.933 837.262 994.166 834.605 992.666 832.36C991.166 830.116 989.007 828.39 986.488 827.425L750.711 739.833Z" fill="white"/>
<path d="M939.748 85C1017.65 85 1056.6 85.0001 1080.79 109.199C1105 133.398 1105 172.346 1105 250.242V573.843H616.137V85H939.748ZM905.318 222.293C886.285 210.303 864.662 206.101 840.454 209.685C814.558 213.519 793.277 225.212 776.612 244.766C757.783 267.202 748.936 295.851 750.069 330.71C750.506 339.473 751.28 347.617 752.395 355.141C759.286 401.677 781.475 429.148 818.962 437.552C840.667 442.312 861.513 443.213 881.499 440.252C900.077 437.504 916.891 431.597 931.947 422.534C958.041 406.425 970.425 393.911 969.106 384.994L968.918 383.74C966.068 374.195 959.435 370.193 949.019 371.735C940.857 372.944 929.833 378.136 915.945 387.312C899.689 397.977 883.256 404.539 866.649 406.997C845.82 410.08 828.283 406.272 814.042 395.564C798.508 383.91 789.467 365.598 786.923 340.631C826.318 342.487 857.838 341.666 881.482 338.165C908.506 334.164 925.68 326.78 933.004 316.014C940.567 304.927 943.357 292.696 941.376 279.32C937.621 253.962 925.603 234.952 905.318 222.293ZM847.033 242.456C859.701 240.581 871.433 242.119 882.234 247.069C893.036 252.02 900.851 260.118 905.682 271.363C911.649 286.426 899.153 296.25 868.19 300.834C849.612 303.585 822.656 304.158 787.324 302.555C789.716 285.684 796.846 271.671 808.715 260.517C819.625 250.644 832.397 244.623 847.033 242.456Z" fill="white"/>
<path d="M574.859 1104.01H251.248C173.349 1104.01 134.4 1104.01 110.2 1079.81C86.0003 1055.61 86 1016.66 86 938.767V615.166H195.335C195.332 615.528 195.328 615.89 195.328 616.252V712.857C183.608 718.347 175.488 730.247 175.488 744.045C175.488 763.057 190.902 778.47 209.915 778.471C228.928 778.471 244.342 763.058 244.342 744.045C244.342 732.42 238.579 722.14 229.754 715.907V616.252C229.754 615.89 229.757 615.528 229.761 615.166H432.399C432.403 615.529 432.406 615.892 432.406 616.256V714.358C422.24 720.341 415.416 731.396 415.416 744.045C415.416 763.058 430.83 778.471 449.843 778.471C468.856 778.471 484.269 763.058 484.269 744.045C484.268 731.21 477.244 720.017 466.83 714.098V616.256C466.83 615.892 466.826 615.529 466.823 615.166H574.859V1104.01ZM186.125 971.649C178.61 971.649 174.47 975.979 174.47 980.946C174.47 985.277 177.017 988.016 181.093 989.799L187.017 992.41C189.246 993.366 190.265 994.321 190.265 995.85C190.265 997.251 188.799 998.843 185.615 998.843C182.431 998.843 179.182 997.187 177.59 995.85L172.94 1000.5C175.806 1003.05 180.52 1004.89 185.679 1004.89C193.067 1004.89 197.716 1000.37 197.716 995.34C197.716 990.818 195.105 988.271 190.01 986.042L186.379 984.449C183.004 982.985 181.921 982.029 181.921 980.565C181.921 978.909 183.514 977.699 186.188 977.699C188.8 977.699 191.347 978.973 193.003 980.438L197.524 975.852C194.531 973.05 190.264 971.649 186.125 971.649ZM218.695 971.649C209.652 971.649 202.774 978.527 202.773 988.271C202.773 997.951 209.652 1004.89 218.695 1004.89C227.739 1004.89 234.682 997.951 234.682 988.271C234.681 978.527 227.739 971.649 218.695 971.649ZM257.101 993.175C257.101 1000.5 261.623 1004.89 268.246 1004.89C271.813 1004.89 274.997 1003.3 277.227 1000.37H277.354V1004.13H284.487V972.413H277.227V993.875C275.38 996.423 272.832 998.078 270.029 998.078C266.845 998.078 264.361 996.041 264.361 991.71V972.413H257.101V993.175ZM348.251 971.649C339.207 971.649 332.328 978.527 332.328 988.271C332.328 997.951 339.207 1004.89 348.251 1004.89C357.295 1004.89 364.236 997.951 364.236 988.271C364.236 978.527 357.295 971.649 348.251 971.649ZM417.122 971.649C409.607 971.649 405.467 975.979 405.467 980.946C405.467 985.277 408.015 988.016 412.091 989.799L418.014 992.41C420.243 993.366 421.262 994.321 421.262 995.85C421.262 997.251 419.797 998.843 416.612 998.843C413.428 998.843 410.18 997.187 408.588 995.85L403.938 1000.5C406.804 1003.05 411.517 1004.89 416.676 1004.89C424.064 1004.89 428.714 1000.37 428.714 995.34C428.714 990.818 426.102 988.271 421.007 986.042L417.377 984.449C414.001 982.985 412.919 982.029 412.919 980.565C412.919 978.909 414.511 977.699 417.186 977.699C419.797 977.699 422.345 978.973 424.001 980.438L428.522 975.852C425.529 973.05 421.262 971.649 417.122 971.649ZM241.621 1004.13H248.882V956.873H241.621V1004.13ZM295.669 972.413H290.383V978.526H295.669V1004.13H302.93V978.526H309.044L311.272 972.413H302.93V961.523H295.669V972.413ZM312.322 978.526H318.054V1004.13H325.314V972.413H314.551L312.322 978.526ZM387.799 971.649C384.169 971.649 380.793 973.178 378.437 976.234H378.31V972.413H371.177V1004.13H378.437V982.666C380.347 980.182 383.023 978.526 385.825 978.526C389.01 978.527 391.748 980.438 391.748 984.832V1004.13H399.009V983.367C399.009 976.043 394.55 971.649 387.799 971.649ZM218.695 978.081C223.79 978.081 227.229 982.412 227.229 988.271C227.229 994.066 223.79 998.398 218.695 998.398C213.6 998.397 210.225 994.066 210.225 988.271C210.225 982.412 213.6 978.081 218.695 978.081ZM348.251 978.081C353.346 978.081 356.785 982.412 356.785 988.271C356.785 994.066 353.346 998.397 348.251 998.398C343.156 998.398 339.78 994.066 339.78 988.271C339.78 982.412 343.156 978.081 348.251 978.081ZM318.054 967.636H325.314V959.548H318.054V967.636ZM190.073 907.961C181.412 907.961 174.66 914.84 174.66 924.648C174.66 934.901 182.176 941.206 190.773 941.206C195.805 941.206 200.264 939.55 203.703 936.238L199.054 931.589C197.016 933.627 194.277 934.647 191.475 934.647C187.144 934.647 183.068 932.099 182.367 926.941H205.358V925.603C205.358 913.438 198.417 907.961 190.073 907.961ZM226.589 907.961C217.545 907.961 210.921 914.84 210.921 924.584C210.921 934.264 217.545 941.206 226.589 941.206C231.174 941.206 235.25 939.614 238.053 936.748L233.467 932.227C232.002 933.628 229.836 934.837 226.843 934.837C221.748 934.837 218.309 930.443 218.309 924.584C218.309 918.725 221.748 914.33 226.843 914.33C229.836 914.33 232.002 915.54 233.467 916.942L238.053 912.42C235.25 909.554 231.174 907.961 226.589 907.961ZM257.692 907.961C248.649 907.961 241.771 914.84 241.771 924.584C241.771 934.264 248.649 941.206 257.692 941.206C266.736 941.206 273.679 934.264 273.679 924.584C273.679 914.84 266.736 907.961 257.692 907.961ZM317.367 907.961C313.1 907.961 309.533 909.936 306.858 913.693H306.73C305.011 910.063 301.827 907.961 297.114 907.961C293.548 907.961 290.235 909.617 287.879 912.547H287.751V908.726H280.618V940.442H287.879V918.98C289.853 916.496 292.401 914.84 295.203 914.84C298.26 914.84 300.871 916.878 300.871 921.018V940.442H308.132V918.98C310.106 916.56 312.59 914.84 315.329 914.84C318.45 914.84 321.125 916.751 321.125 921.018V940.442H328.385V919.68C328.385 912.356 324.118 907.961 317.367 907.961ZM257.692 914.394C262.788 914.394 266.228 918.725 266.228 924.584C266.227 930.379 262.787 934.71 257.692 934.71C252.598 934.71 249.222 930.379 249.222 924.584C249.222 918.725 252.597 914.394 257.692 914.394ZM190.265 914.139C194.468 914.139 197.334 917.515 197.652 921.591H182.367C182.94 917.642 185.743 914.139 190.265 914.139Z" fill="white"/>
<path d="M334.583 480.548C407.937 482.408 466.83 542.455 466.83 616.256V714.098C477.244 720.017 484.268 731.21 484.269 744.045C484.269 763.058 468.856 778.471 449.843 778.471C430.83 778.471 415.416 763.058 415.416 744.045C415.416 731.396 422.24 720.341 432.406 714.358V616.256C432.406 560.297 387.041 514.933 331.081 514.93C275.122 514.93 229.755 560.294 229.754 616.252V715.907C238.579 722.14 244.342 732.42 244.342 744.045C244.342 763.058 228.928 778.471 209.915 778.471C190.902 778.471 175.488 763.058 175.488 744.045C175.488 730.247 183.608 718.347 195.328 712.857V616.252C195.329 541.28 256.108 480.507 331.081 480.507L334.583 480.548Z" fill="#008AF5"/>
</svg>
