<svg width="655" height="130" viewBox="0 0 655 130" fill="none" xmlns="http://www.w3.org/2000/svg">
<path d="M496.926 48.4308L518.691 119.283L414.024 36.1549L496.926 48.4308ZM496.926 48.4308L474.63 -44.9268L576.687 -77.9523L496.926 48.4308ZM496.926 48.4308L594.763 36.2677" stroke="#D1D6D9" stroke-width="0.805501" stroke-miterlimit="10"/>
<path d="M359.395 -56.2525L267.777 -98.4124L229.129 17.032L359.395 -56.2525Z" stroke="#D1D6D9" stroke-width="0.805501" stroke-miterlimit="10"/>
<path d="M169.844 -41.6728L229.129 17.0321" stroke="#D1D6D9" stroke-width="0.805501" stroke-miterlimit="10"/>
<path d="M169.845 -41.6728L95.0618 56.7595L72.2984 -28.9297L9.54992 5.78737L0.496094 -123.012L72.2984 -28.9297" stroke="#D1D6D9" stroke-width="0.805501" stroke-miterlimit="10"/>
<path d="M2.41293 10.3955L1.17242 128.353L95.0616 56.7601L2.73505 7.35068" stroke="#D1D6D9" stroke-width="0.805501" stroke-miterlimit="10"/>
<path d="M697.496 60.9L668.466 -76.3413L594.763 36.2678L576.687 -77.9523L668.466 -76.3413L623.165 -165.172L576.687 -77.9523" stroke="#D1D6D9" stroke-width="0.805501" stroke-miterlimit="10"/>
<path d="M594.762 36.2673L654.321 76.043L518.691 119.282L594.762 36.2673Z" stroke="#D1D6D9" stroke-width="0.805501" stroke-miterlimit="10"/>
<path d="M474.63 -44.9266L414.024 36.1551L359.395 -56.252" stroke="#D1D6D9" stroke-width="0.805501" stroke-miterlimit="10"/>
<path d="M598.613 35.3815C598.962 36.1906 599.14 37.0627 599.139 37.9437C599.137 38.8247 598.955 39.6961 598.603 40.5038C598.251 41.3116 597.737 42.0386 597.093 42.64C596.45 43.2414 595.689 43.7044 594.859 44.0003C593.172 44.6632 591.294 44.6496 589.617 43.9623C587.939 43.2751 586.591 41.9673 585.854 40.3111C585.502 39.5042 585.318 38.6336 585.316 37.7531C585.313 36.8726 585.491 36.0009 585.838 35.1918C586.185 34.3826 586.694 33.6532 587.334 33.0486C587.975 32.4439 588.732 31.9768 589.559 31.6762C591.255 31.004 593.145 31.0144 594.833 31.7052C596.52 32.396 597.875 33.7135 598.613 35.3815Z" fill="#F29100"/>
<path d="M512.924 114.273C513.908 112.749 515.442 111.663 517.207 111.243C518.972 110.823 520.831 111.1 522.396 112.017C523.166 112.443 523.842 113.02 524.383 113.714C524.924 114.407 525.32 115.203 525.545 116.053C525.771 116.903 525.823 117.791 525.697 118.661C525.571 119.532 525.27 120.368 524.813 121.12C523.831 122.646 522.298 123.735 520.533 124.158C518.768 124.581 516.907 124.307 515.34 123.391C514.571 122.962 513.897 122.383 513.357 121.688C512.817 120.993 512.422 120.196 512.197 119.345C511.971 118.494 511.919 117.606 512.044 116.735C512.169 115.863 512.468 115.026 512.924 114.273Z" fill="#39A935"/>
<path d="M421.773 30.6127C422.359 31.524 422.709 32.5665 422.792 33.6466C422.875 34.7266 422.689 35.8105 422.249 36.8007C421.81 37.7909 421.132 38.6565 420.276 39.3198C419.419 39.9831 418.411 40.4233 417.343 40.6009C415.983 40.8773 414.572 40.7448 413.287 40.2201C412.003 39.6954 410.903 38.8021 410.125 37.6528C409.526 36.75 409.161 35.7126 409.062 34.6336C408.963 33.5547 409.134 32.4681 409.558 31.4714C409.983 30.4747 410.649 29.5992 411.496 28.9235C412.343 28.2478 413.345 27.7931 414.411 27.6001C415.798 27.3105 417.241 27.4425 418.553 27.9794C419.865 28.5163 420.986 29.4333 421.773 30.6127Z" fill="#35A8E0"/>
<path d="M502.565 45.7726C502.913 46.5818 503.092 47.4538 503.091 48.3349C503.089 49.2159 502.906 50.0872 502.555 50.895C502.203 51.7027 501.689 52.4298 501.045 53.0312C500.402 53.6326 499.641 54.0955 498.811 54.3915C497.124 55.0543 495.246 55.0407 493.569 54.3535C491.891 53.6663 490.543 52.3584 489.806 50.7023C489.457 49.8931 489.278 49.0211 489.28 48.1401C489.282 47.259 489.464 46.3877 489.816 45.58C490.168 44.7722 490.682 44.0452 491.325 43.4438C491.969 42.8424 492.73 42.3794 493.559 42.0834C495.247 41.4247 497.123 41.4404 498.8 42.1272C500.476 42.8139 501.824 44.1192 502.565 45.7726Z" fill="#F29100"/>
<path d="M224.426 10.5078C225.407 8.98492 226.938 7.90002 228.701 7.47974C230.463 7.05945 232.319 7.33629 233.882 8.25242C234.663 8.6694 235.349 9.24271 235.898 9.93661C236.448 10.6305 236.848 11.4301 237.075 12.2856C237.302 13.1411 237.35 14.0341 237.216 14.909C237.083 15.7839 236.77 16.6218 236.299 17.3707C235.317 18.8936 233.786 19.9785 232.024 20.3988C230.261 20.8191 228.405 20.5422 226.842 19.6261C226.061 19.2091 225.375 18.6358 224.826 17.9419C224.276 17.248 223.876 16.4484 223.649 15.5929C223.422 14.7374 223.374 13.8444 223.508 12.9696C223.642 12.0947 223.954 11.2567 224.426 10.5078Z" fill="#39A935"/>
</svg>
