<svg width="42" height="41" viewBox="0 0 42 41" fill="none" xmlns="http://www.w3.org/2000/svg">
<path d="M41.0441 0H21.3871V19.6572H41.0441V0ZM27.8514 3.32753C28.1413 3.32753 28.4249 3.41348 28.6659 3.57455C28.907 3.73562 29.0948 3.96457 29.2058 4.23242C29.3167 4.50027 29.3457 4.79507 29.2892 5.07942C29.2326 5.36377 29.093 5.62488 28.888 5.82989C28.683 6.03489 28.4217 6.17451 28.1373 6.23107C27.853 6.28763 27.5583 6.25863 27.2904 6.14768C27.0226 6.03673 26.7937 5.84889 26.6327 5.60783C26.4716 5.36677 26.3855 5.08331 26.3855 4.79339C26.3888 4.41953 26.5348 4.0611 26.7937 3.79134C27.0526 3.52157 27.4048 3.36088 27.7782 3.3422L27.8514 3.32753ZM36.2363 16.1978H33.3045V12.1374L36.2363 9.5135V16.1978ZM36.2363 7.21209L33.3045 10.0265L29.9917 12.9582L26.4736 16.1391V7.73978H29.3173V9.93857L36.2801 3.3422L36.2363 7.21209Z" fill="#172A46"/>
<path d="M19.6572 0H0V19.6572H19.6572V0ZM6.09803 16.1245H3.28351L7.38799 7.93035L8.85385 10.7301L6.09803 16.1245ZM13.4273 16.1245L8.37018 6.02475L9.83604 3.25426L16.271 16.1245H13.4273Z" fill="#172A46"/>
<path d="M41.0441 21.3429H21.3871V41H41.0441V21.3429ZM24.9197 37.6872L29.0095 29.4931L30.4753 32.3075L27.7782 37.6872H24.9197ZM31.3402 36.9983C31.0502 36.9983 30.7669 36.9122 30.5258 36.7512C30.2847 36.5901 30.0969 36.3612 29.9859 36.0934C29.875 35.8255 29.846 35.5307 29.9026 35.2464C29.9591 34.962 30.0987 34.7008 30.3037 34.4958C30.5087 34.2908 30.7699 34.1512 31.0542 34.0946C31.3386 34.0381 31.6333 34.0672 31.9011 34.1781C32.169 34.2891 32.398 34.4769 32.5591 34.718C32.7201 34.959 32.806 35.2425 32.806 35.5324C32.8144 35.7361 32.7804 35.9393 32.7058 36.1291C32.6312 36.3188 32.5178 36.4909 32.373 36.6344C32.2281 36.7779 32.0549 36.8896 31.8644 36.9623C31.674 37.0351 31.4706 37.0672 31.267 37.0569L31.3402 36.9983ZM34.9901 37.6872L29.9477 27.5874L31.4135 24.817L37.8487 37.6872H34.9901Z" fill="#172A46"/>
<path d="M19.6572 21.3429H0V41H19.6572V21.3429ZM7.93035 37.6725H4.99863V29.2146H7.93035V37.6725ZM6.46449 27.7194C6.17457 27.7194 5.8912 27.6334 5.65015 27.4723C5.40909 27.3113 5.22124 27.0823 5.11029 26.8145C4.99934 26.5466 4.97016 26.2519 5.02673 25.9675C5.08329 25.6832 5.2229 25.422 5.4279 25.217C5.63291 25.012 5.8942 24.8724 6.17855 24.8158C6.4629 24.7593 6.75761 24.7883 7.02546 24.8992C7.29331 25.0101 7.52217 25.198 7.68324 25.4391C7.84431 25.6801 7.93035 25.9636 7.93035 26.2535C7.93035 26.6423 7.77598 27.0151 7.50108 27.29C7.22618 27.5649 6.85326 27.7194 6.46449 27.7194ZM14.5561 27.7194H9.39621V24.7876H14.5414L14.5561 27.7194Z" fill="#172A46"/>
</svg>
