<svg viewBox="0 0 181 43" fill="none" xmlns="http://www.w3.org/2000/svg">
<path d="M42.9078 0.0765762H22.3281V20.6563H42.9078V0.0765762ZM29.0296 3.57298C29.3329 3.57298 29.6293 3.66291 29.8815 3.83141C30.1337 3.99992 30.3303 4.23943 30.4463 4.51964C30.5624 4.79985 30.5928 5.10819 30.5336 5.40566C30.4744 5.70313 30.3284 5.97638 30.1139 6.19084C29.8994 6.40531 29.6262 6.55135 29.3287 6.61052C29.0312 6.66969 28.7229 6.63932 28.4427 6.52326C28.1625 6.40719 27.923 6.21063 27.7545 5.95845C27.586 5.70627 27.496 5.40979 27.496 5.10649C27.496 4.69977 27.6576 4.30972 27.9452 4.02213C28.2328 3.73454 28.6228 3.57298 29.0296 3.57298ZM37.7859 17.0372H34.8109V12.7894L37.7859 10.0444V17.0372ZM37.7859 7.63678L34.7189 10.5811L31.2531 13.6481L27.5574 16.9758V8.18883H30.5477V10.4738L37.8166 3.57298L37.7859 7.63678Z" fill="#334969"/>
<path d="M20.5797 0.0765762H0V20.6563H20.5797V0.0765762ZM6.39473 16.9452H3.48107L7.75955 8.37286L9.29306 11.3172L6.39473 16.9452ZM13.9856 16.9452L8.71035 6.39463L10.2439 3.48096L16.976 16.9452H13.9856Z" fill="#334969"/>
<path d="M42.9078 22.4201H22.3281V42.9385H42.9078V22.4201ZM25.9625 39.5034L30.241 30.9311L31.7745 33.8755L28.9682 39.5034H25.9625ZM32.6793 38.7827C32.4532 38.8394 32.2171 38.8437 31.989 38.7955C31.761 38.7472 31.5469 38.6476 31.3631 38.5042C31.1793 38.3608 31.0307 38.1773 30.9284 37.9678C30.8261 37.7584 30.773 37.5283 30.773 37.2952C30.773 37.0621 30.8261 36.832 30.9284 36.6225C31.0307 36.413 31.1793 36.2296 31.3631 36.0862C31.5469 35.9428 31.761 35.8431 31.989 35.7949C32.2171 35.7466 32.4532 35.751 32.6793 35.8077C33.0109 35.8908 33.3052 36.0823 33.5155 36.3518C33.7258 36.6213 33.84 36.9533 33.84 37.2952C33.84 37.637 33.7258 37.9691 33.5155 38.2386C33.3052 38.5081 33.0109 38.6996 32.6793 38.7827ZM36.4977 39.5034L31.2225 28.9529L32.618 26.0699L39.3347 39.5341L36.4977 39.5034Z" fill="#334969"/>
<path d="M20.5797 22.4201H0V42.9385H20.5797V22.4201ZM8.20429 39.5034H5.13727V30.6704H8.20429V39.5034ZM6.67078 29.0756C6.36748 29.0756 6.07098 28.9856 5.8188 28.8171C5.56662 28.6486 5.37007 28.4091 5.25401 28.1289C5.13794 27.8487 5.10756 27.5404 5.16673 27.2429C5.2259 26.9454 5.37195 26.6722 5.58642 26.4577C5.80089 26.2432 6.07412 26.0972 6.37159 26.038C6.66906 25.9789 6.9774 26.0092 7.25761 26.1253C7.53782 26.2413 7.77733 26.4379 7.94584 26.6901C8.11434 26.9423 8.20429 27.2388 8.20429 27.5421C8.21251 27.7473 8.17943 27.952 8.10701 28.1442C8.0346 28.3364 7.92432 28.512 7.78272 28.6608C7.64112 28.8095 7.4711 28.9283 7.28272 29.0101C7.09434 29.0919 6.89146 29.135 6.6861 29.1369L6.67078 29.0756ZM15.1358 29.0756H9.7378V26.0699H15.1358V29.0756Z" fill="#334969"/>
<path d="M51.5721 3.61891V17.0524H61.7546V19.7361H64.4536V14.4762H62.7668V3.61891H59.6844V14.4762H54.6545V3.61891H51.5721Z" fill="#334969"/>
<path d="M74.8969 8.3268H75.0042L75.0196 17.0525H78.0866V3.61891H74.9122L69.9743 12.3599H69.867V3.61891H66.7846V17.0525H69.9437L74.8969 8.3268Z" fill="#334969"/>
<path d="M95.6297 9.87567C95.6234 9.11162 95.4603 8.357 95.1506 7.65854C94.8408 6.96008 94.3909 6.33266 93.8288 5.81513C93.2667 5.29759 92.6043 4.90096 91.8827 4.64981C91.1611 4.39865 90.3956 4.29832 89.6337 4.35502H89.4957V2.94419H86.4286V4.35502H86.2906C85.5287 4.29832 84.7632 4.39865 84.0416 4.64981C83.3199 4.90096 82.6576 5.29759 82.0955 5.81513C81.5334 6.33266 81.0835 6.96008 80.7737 7.65854C80.464 8.357 80.3009 9.11162 80.2946 9.87567C80.289 10.6506 80.4427 11.4184 80.746 12.1316C81.0494 12.8447 81.496 13.4879 82.0582 14.0213C82.6204 14.5547 83.2861 14.967 84.0142 15.2325C84.7422 15.498 85.517 15.6112 86.2906 15.565H86.4286V17.2825H89.4957V15.565H89.6337C90.4072 15.6112 91.1821 15.498 91.9101 15.2325C92.6382 14.967 93.3039 14.5547 93.8661 14.0213C94.4283 13.4879 94.8749 12.8447 95.1782 12.1316C95.4816 11.4184 95.6353 10.6506 95.6297 9.87567ZM86.4286 13.0347H86.2906C85.4988 12.9795 84.7592 12.6196 84.2273 12.0305C83.6954 11.4414 83.4126 10.669 83.4383 9.87567C83.4155 9.48494 83.472 9.09364 83.6045 8.72537C83.7371 8.3571 83.9428 8.01948 84.2093 7.73288C84.4759 7.44628 84.7977 7.21664 85.1554 7.05779C85.5131 6.89895 85.8993 6.81419 86.2906 6.80865H86.4286V13.0347ZM89.649 13.0347H89.511V6.90065H89.649C90.0417 6.90414 90.4295 6.98737 90.789 7.14531C91.1485 7.30324 91.4722 7.53258 91.7403 7.8194C92.0085 8.10622 92.2156 8.44454 92.3491 8.81383C92.4825 9.18312 92.5395 9.57568 92.5167 9.96767C92.5181 10.7502 92.2203 11.5037 91.6844 12.0738C91.1484 12.644 90.4148 12.9877 89.6337 13.0347H89.649Z" fill="#334969"/>
<path d="M107.76 8.20435C107.807 7.6116 107.73 7.01553 107.533 6.45446C107.336 5.89338 107.024 5.37972 106.616 4.94645C106.209 4.51319 105.716 4.16991 105.168 3.93868C104.62 3.70746 104.03 3.5934 103.435 3.60383H97.8841V17.0374H100.951V12.8202H103.435C104.031 12.8285 104.621 12.7124 105.169 12.4795C105.717 12.2465 106.21 11.9018 106.617 11.4673C107.024 11.0329 107.336 10.5183 107.533 9.95643C107.729 9.39457 107.807 8.79782 107.76 8.20435ZM100.951 10.2286V6.22613H102.807C103.063 6.21257 103.32 6.25577 103.558 6.35264C103.796 6.4495 104.01 6.59765 104.184 6.78654C104.358 6.97544 104.488 7.20042 104.566 7.44549C104.643 7.69055 104.666 7.94965 104.632 8.20435C104.663 8.46596 104.637 8.73132 104.556 8.98186C104.474 9.23241 104.339 9.4621 104.159 9.65489C103.979 9.84767 103.76 9.9989 103.515 10.098C103.271 10.1971 103.008 10.2417 102.745 10.2286H100.951Z" fill="#334969"/>
<path d="M116.102 3.38917C115.184 3.35801 114.27 3.51325 113.414 3.84551C112.558 4.17777 111.778 4.68015 111.121 5.32229C110.465 5.96443 109.945 6.733 109.594 7.58156C109.243 8.43011 109.068 9.34105 109.079 10.2593C109.045 11.6588 109.43 13.0365 110.183 14.2163C110.937 15.3962 112.025 16.3246 113.308 16.8828C114.592 17.4411 116.013 17.6039 117.39 17.3504C118.767 17.0969 120.037 16.4387 121.037 15.4598C122.038 14.4809 122.724 13.2258 123.008 11.855C123.292 10.4842 123.161 9.05987 122.631 7.7641C122.101 6.46832 121.197 5.35996 120.034 4.58066C118.871 3.80136 117.502 3.38653 116.102 3.38917ZM116.102 14.4918C115.571 14.4703 115.049 14.3432 114.568 14.1179C114.086 13.8926 113.655 13.5736 113.298 13.1796C112.941 12.7856 112.666 12.3244 112.489 11.823C112.312 11.3216 112.237 10.79 112.268 10.2593C112.221 9.72702 112.284 9.19065 112.455 8.68434C112.626 8.17803 112.901 7.71288 113.262 7.31851C113.622 6.92414 114.061 6.60918 114.55 6.3937C115.039 6.17823 115.568 6.06694 116.102 6.06694C116.637 6.06694 117.165 6.17823 117.654 6.3937C118.143 6.60918 118.582 6.92414 118.943 7.31851C119.303 7.71288 119.578 8.17803 119.749 8.68434C119.92 9.19065 119.984 9.72702 119.936 10.2593C119.967 10.79 119.892 11.3216 119.715 11.823C119.538 12.3244 119.264 12.7856 118.907 13.1796C118.55 13.5736 118.118 13.8926 117.636 14.1179C117.155 14.3432 116.633 14.4703 116.102 14.4918Z" fill="#334969"/>
<path d="M130.456 3.61891H125.549V17.0525H130.456C131.989 17.0525 135.532 16.6691 135.532 13.1113C135.563 12.4606 135.378 11.8179 135.007 11.2828C134.635 10.7477 134.097 10.3501 133.477 10.1517H133.385V9.93698C133.863 9.64689 134.256 9.23638 134.525 8.74655C134.794 8.25672 134.93 7.70477 134.918 7.14599C134.98 4.90707 133.293 3.61891 130.456 3.61891ZM128.631 6.22588H130.44C130.621 6.20308 130.805 6.22035 130.978 6.27645C131.152 6.33256 131.311 6.42612 131.444 6.55052C131.577 6.67492 131.681 6.82709 131.749 6.99626C131.817 7.16542 131.846 7.34743 131.836 7.52937C131.851 7.71329 131.827 7.89837 131.766 8.07236C131.704 8.24636 131.607 8.40531 131.479 8.53868C131.351 8.67205 131.197 8.77682 131.026 8.84603C130.855 8.91525 130.671 8.94735 130.486 8.94019H128.631V6.22588ZM130.778 14.4608H128.631V11.3938H130.763C131.169 11.3938 131.559 11.5554 131.847 11.843C132.134 12.1305 132.296 12.5206 132.296 12.9273C132.296 13.334 132.134 13.7241 131.847 14.0117C131.559 14.2993 131.169 14.4608 130.763 14.4608H130.778Z" fill="#334969"/>
<path d="M144.242 3.38917C143.324 3.35801 142.41 3.51325 141.554 3.84551C140.697 4.17777 139.918 4.68015 139.261 5.32229C138.605 5.96443 138.085 6.733 137.734 7.58156C137.383 8.43011 137.208 9.34105 137.219 10.2593C137.185 11.6588 137.57 13.0365 138.323 14.2163C139.076 15.3962 140.165 16.3246 141.448 16.8828C142.732 17.4411 144.153 17.6039 145.53 17.3504C146.907 17.0969 148.177 16.4387 149.177 15.4598C150.178 14.4809 150.864 13.2258 151.148 11.855C151.432 10.4842 151.3 9.05987 150.771 7.7641C150.241 6.46832 149.337 5.35996 148.174 4.58066C147.011 3.80136 145.642 3.38653 144.242 3.38917ZM144.242 14.4918C143.711 14.4703 143.189 14.3432 142.708 14.1179C142.226 13.8926 141.794 13.5736 141.437 13.1796C141.081 12.7856 140.806 12.3244 140.629 11.823C140.452 11.3216 140.377 10.79 140.408 10.2593C140.361 9.72702 140.424 9.19065 140.595 8.68434C140.766 8.17803 141.041 7.71288 141.402 7.31851C141.762 6.92414 142.201 6.60918 142.69 6.3937C143.179 6.17823 143.708 6.06694 144.242 6.06694C144.776 6.06694 145.305 6.17823 145.794 6.3937C146.283 6.60918 146.722 6.92414 147.083 7.31851C147.443 7.71288 147.718 8.17803 147.889 8.68434C148.06 9.19065 148.123 9.72702 148.076 10.2593C148.107 10.79 148.032 11.3216 147.855 11.823C147.678 12.3244 147.403 12.7856 147.047 13.1796C146.69 13.5736 146.258 13.8926 145.776 14.1179C145.295 14.3432 144.773 14.4703 144.242 14.4918Z" fill="#334969"/>
<path d="M156.019 0.138083V7.24792e-05H158.366V0.107418C158.361 0.259646 158.388 0.411159 158.446 0.552172C158.503 0.693184 158.59 0.820558 158.7 0.926061C158.81 1.03156 158.94 1.11285 159.084 1.16467C159.227 1.21648 159.379 1.23768 159.531 1.22688C159.683 1.23533 159.834 1.2125 159.976 1.15983C160.118 1.10717 160.248 1.02578 160.357 0.920761C160.467 0.815737 160.553 0.689319 160.612 0.549387C160.67 0.409456 160.699 0.259008 160.697 0.107418V7.24792e-05H163.074V0.0920793C163.074 1.93229 161.417 2.97508 159.531 2.97508C157.645 2.97508 156.019 1.97829 156.019 0.138083Z" fill="#334969"/>
<path d="M161.801 8.3268H161.923V17.0525H164.99V3.61891H161.816L156.878 12.3599H156.771V3.61891H153.688V17.0525H156.847L161.801 8.3268Z" fill="#334969"/>
<path d="M63.8862 32.6332C63.9236 31.7137 63.769 30.7966 63.4322 29.9402C63.0955 29.0838 62.5841 28.307 61.9305 27.6592C61.277 27.0114 60.4956 26.5069 59.6363 26.1778C58.777 25.8487 57.8585 25.7022 56.9394 25.7477C55.0278 25.686 53.1677 26.3739 51.7562 27.6646L53.167 29.9649C54.1466 29.0211 55.4418 28.4746 56.8014 28.4313C57.6646 28.3751 58.5198 28.626 59.2158 29.1396C59.9118 29.6532 60.4037 30.3963 60.6045 31.2377V31.4064H54.8999V33.814H60.5892V33.9827C60.4006 34.8299 59.9151 35.5818 59.2203 36.1021C58.5256 36.6225 57.6675 36.877 56.8014 36.8196C55.423 36.8012 54.0942 36.3022 53.0443 35.4088L51.5108 37.5711C52.9405 38.8707 54.8081 39.5827 56.7401 39.5646C57.6721 39.6088 58.6032 39.4614 59.476 39.1315C60.3487 38.8015 61.1446 38.2962 61.8143 37.6466C62.4841 36.9969 63.0135 36.2169 63.3698 35.3546C63.7262 34.4923 63.902 33.5661 63.8862 32.6332Z" fill="#334969"/>
<path d="M73.8846 39.4112H77.3196L73.5012 32.4338V32.3571L77.1049 25.9777H73.8232L70.9862 31.2683H69.3761V25.9777H66.309V39.4112H69.3761V33.8446H70.9862L73.8846 39.4112Z" fill="#334969"/>
<path d="M85.1251 25.7479C84.2073 25.7168 83.2927 25.872 82.4366 26.2043C81.5805 26.5365 80.8007 27.0389 80.1442 27.681C79.4877 28.3232 78.9683 29.0918 78.6172 29.9403C78.2661 30.7889 78.0907 31.6998 78.1016 32.618C78.0681 34.0175 78.4526 35.3953 79.206 36.5751C79.9595 37.7549 81.0476 38.6833 82.3314 39.2416C83.6152 39.7999 85.0362 39.9627 86.413 39.7092C87.7897 39.4557 89.0596 38.7974 90.0604 37.8185C91.0611 36.8396 91.7472 35.5846 92.031 34.2138C92.3149 32.8429 92.1835 31.4186 91.6537 30.1229C91.1239 28.8271 90.2197 27.7187 89.0568 26.9394C87.8939 26.1601 86.525 25.7453 85.1251 25.7479ZM85.1251 36.8659C84.5932 36.8424 84.0713 36.7134 83.5897 36.4865C83.1081 36.2595 82.6764 35.9391 82.3196 35.5439C81.9629 35.1487 81.6883 34.6865 81.5118 34.1842C81.3353 33.6819 81.2603 33.1495 81.2913 32.618C81.2437 32.0858 81.3074 31.5494 81.4784 31.0431C81.6494 30.5368 81.924 30.0716 82.2846 29.6773C82.6452 29.2829 83.084 28.9679 83.5731 28.7525C84.0621 28.537 84.5907 28.4257 85.1251 28.4257C85.6595 28.4257 86.1881 28.537 86.6771 28.7525C87.1661 28.9679 87.605 29.2829 87.9656 29.6773C88.3262 30.0716 88.6008 30.5368 88.7718 31.0431C88.9428 31.5494 89.0065 32.0858 88.9589 32.618C89.0046 33.6813 88.6266 34.7193 87.9079 35.5042C87.1891 36.2891 86.1883 36.7568 85.1251 36.8045V36.8659Z" fill="#334969"/>
<path d="M106.64 39.4112V25.9777H103.558V31.4677H97.6539V25.9777H94.5715V39.4112H97.6539V34.0439H103.558V39.4112H106.64Z" fill="#334969"/>
<path d="M116.071 25.7479C115.153 25.7168 114.239 25.872 113.383 26.2043C112.527 26.5365 111.747 27.0389 111.09 27.681C110.434 28.3232 109.914 29.0918 109.563 29.9403C109.212 30.7889 109.037 31.6998 109.048 32.618C109.014 34.0175 109.399 35.3953 110.152 36.5751C110.906 37.7549 111.994 38.6833 113.278 39.2416C114.561 39.7999 115.982 39.9627 117.359 39.7092C118.736 39.4557 120.006 38.7974 121.007 37.8185C122.007 36.8396 122.693 35.5846 122.977 34.2138C123.261 32.8429 123.13 31.4186 122.6 30.1229C122.07 28.8271 121.166 27.7187 120.003 26.9394C118.84 26.1601 117.471 25.7453 116.071 25.7479ZM116.071 36.8659C115.539 36.8424 115.017 36.7134 114.536 36.4865C114.054 36.2595 113.623 35.9391 113.266 35.5439C112.909 35.1487 112.635 34.6865 112.458 34.1842C112.281 33.6819 112.206 33.1495 112.237 32.618C112.19 32.0858 112.254 31.5494 112.425 31.0431C112.596 30.5368 112.87 30.0716 113.231 29.6773C113.591 29.2829 114.03 28.9679 114.519 28.7525C115.008 28.537 115.537 28.4257 116.071 28.4257C116.606 28.4257 117.134 28.537 117.623 28.7525C118.112 28.9679 118.551 29.2829 118.912 29.6773C119.272 30.0716 119.547 30.5368 119.718 31.0431C119.889 31.5494 119.953 32.0858 119.905 32.618C119.951 33.6813 119.573 34.7193 118.854 35.5042C118.135 36.2891 117.134 36.7568 116.071 36.8045V36.8659Z" fill="#334969"/>
<path d="M136.559 39.4112H139.642L138.537 25.9777H135.133L132.449 34.0286H132.204L129.52 25.9777H126.101L124.996 39.4112H128.094L128.493 30.9309H128.784L130.977 37.203H133.661L135.869 30.9309H136.16L136.559 39.4112Z" fill="#334969"/>
<path d="M164.331 39.4112H167.766L163.948 32.4338V32.3571L167.551 25.9777H164.27L161.433 31.2683H159.822V25.9777H156.74V39.4112H159.822V33.8446H161.433L164.331 39.4112Z" fill="#334969"/>
<path d="M177.81 30.6856H177.918V39.4112H181V25.9777H177.826L172.888 34.7187H172.765V25.9777H169.698V39.4112H172.857L177.81 30.6856Z" fill="#334969"/>
<path d="M150.392 30.6856H150.514V39.4112H153.597V25.9777H150.422L145.484 34.7187H145.362V25.9777H142.279V39.4112H145.438L150.392 30.6856Z" fill="#334969"/>
</svg>
